<?xml version="1.0" encoding="utf-8"?>
<!-- Generator: Adobe Illustrator 27.4.1, SVG Export Plug-In . SVG Version: 6.00 Build 0)  -->
<svg version="1.1" id="Layer_1" xmlns="http://www.w3.org/2000/svg" xmlns:xlink="http://www.w3.org/1999/xlink" x="0px" y="0px"
	 viewBox="0 0 400 400" style="enable-background:new 0 0 400 400;" xml:space="preserve">
<style type="text/css">
	.st0{fill:#22C55E;}
</style>
<path class="st0" d="M23.5,282.6c0-20.1,2.8-30.7,2.8-48.9c0-10.2-5.9-20.5-24.4-21.3v-24.8c18.5-0.4,24.4-10.6,24.4-20.9
	c0-18.1-2.8-28.8-2.8-48.9c0-31.1,11.4-41,36.6-41h18.1v22.5h-5.5c-11.8,0-15.3,4.3-15.3,20.1c0,15.4,1.2,29.2,1.2,46.5
	c0,21.7-6.7,30-21.2,33.5v1.2c14.6,3.5,21.2,11.8,21.2,33.5c0,17.3-1.2,31.1-1.2,46.5c0,15.8,3.5,20.1,15.3,20.1h5.5v22.5H60.1
	C34.9,323.2,23.5,313.7,23.5,282.6z"/>
<g>
	<g>
		<path class="st0" d="M100,106.2h10.3v62.3H100V106.2z M104.3,133h21.5c1.4,0,2.7-0.4,3.7-1.1c1.1-0.7,1.9-1.7,2.5-3
			c0.6-1.3,1-2.8,1-4.5c0-1.7-0.2-3.1-0.8-4.5c-0.6-1.3-1.4-2.3-2.5-3c-1.1-0.7-2.4-1.1-3.9-1.1h-21.5V106H126
			c3.5,0,6.6,0.7,9.3,2.3c2.7,1.6,4.7,3.6,6.2,6.4c1.4,2.8,2.2,5.9,2.2,9.5s-0.7,6.9-2.2,9.7c-1.4,2.8-3.5,5-6.2,6.4
			c-2.7,1.6-5.8,2.3-9.2,2.3h-21.9V133z M119.4,140.8l10.6-1.9l16.3,29.6h-12.2L119.4,140.8z"/>
		<path class="st0" d="M157.3,106.2h10.3v62.3h-10.3V106.2z M161.5,106.2h36.6v9.8h-36.6C161.5,116,161.5,106.2,161.5,106.2z
			 M161.5,132.7h31.9v9.8h-31.9V132.7z M161.5,158.7h36.6v9.8h-36.6C161.5,168.5,161.5,158.7,161.5,158.7z"/>
		<path class="st0" d="M220.2,168.3c-2.8-0.6-5.3-1.4-7.7-2.5s-4.6-2.5-6.6-4.2l5.4-8.2c2.4,2.1,5.1,3.6,8.1,4.6
			c3,1.1,6.2,1.6,9.5,1.6c4.2,0,7.4-0.7,9.7-2.2c2.3-1.4,3.5-3.6,3.5-6.3l0,0c0-1.9-0.5-3.4-1.6-4.6c-1.1-1.1-2.4-1.9-4-2.5
			c-1.7-0.5-3.7-1-6.4-1.4c-0.1,0-0.1,0-0.2,0c-0.1,0-0.1,0-0.2,0l-0.7-0.1c-4.2-0.7-7.6-1.4-10.3-2.4c-2.7-1-5-2.7-6.9-5.1
			s-2.8-5.9-2.8-10.3l0,0c0-4,0.8-7.4,2.7-10.1c1.8-2.8,4.3-5,7.7-6.4c3.4-1.4,7.4-2.2,12.2-2.2c2.2,0,4.5,0.2,6.8,0.7
			c2.3,0.5,4.5,1.2,6.6,2.2s4.2,2.2,6.3,3.6l-5,8.5c-2.4-1.7-4.8-3-7.4-3.9c-2.5-0.8-5-1.3-7.2-1.3c-4,0-7,0.7-9.2,2.2
			c-2.2,1.4-3.3,3.5-3.3,6.2l0,0c0,1.9,0.6,3.5,1.7,4.7c1.1,1.1,2.5,1.9,4.2,2.5c1.7,0.6,4,1.1,7,1.7c0.1,0,0.2,0,0.4,0.1
			c0.1,0,0.2,0,0.4,0.1c0.1,0,0.2,0,0.5,0.1c0.1,0,0.4,0,0.5,0.1c3.9,0.7,7.1,1.7,9.7,2.8c2.5,1.1,4.7,2.8,6.5,5.2s2.7,5.7,2.7,9.8
			v0.1c0,3.9-1,7.2-2.8,10c-1.8,2.8-4.5,4.8-8,6.3c-3.5,1.4-7.7,2.2-12.6,2.2C225.9,169.1,223,168.9,220.2,168.3z"/>
		<path class="st0" d="M255.1,106.2H300v9.8h-44.8V106.2z M272.5,111.4h10.1v57.3h-10.1V111.4z"/>
	</g>
	<g>
		<path class="st0" d="M227.5,193.3l0,13l-13,0l0-13H227.5z M185.5,193.3l0,13h-13l0-13H185.5z"/>
	</g>
	<g>
		<path class="st0" d="M158,229.4h7.8l24.4,64.8h-11.4L162,246l-16.7,48.2h-11.4L158,229.4z M145.1,271.7h34v10.2h-34V271.7z"/>
		<path class="st0" d="M198.9,229.4h10.7v64.8h-10.7V229.4z M204.1,258.9h20.7c1.8,0,3.3-0.4,4.5-1.1c1.3-0.8,2.3-1.9,3-3.4
			c0.8-1.5,1.1-3.1,1.1-5s-0.4-3.6-1.1-5c-0.8-1.4-1.8-2.6-3-3.4c-1.3-0.8-2.8-1.3-4.5-1.3h-20.7v-10.2h20.3c3.9,0,7.4,0.9,10.4,2.5
			s5.3,4,7,7c1.6,3,2.5,6.5,2.5,10.4s-0.9,7.4-2.5,10.4s-4,5.3-7,6.9c-3,1.6-6.5,2.5-10.4,2.5h-20.3V258.9z"/>
		<path class="st0" d="M266.1,294.2h-10.9v-64.8h10.9V294.2z"/>
	</g>
</g>
<path class="st0" d="M321.8,300.3h5.5c11.8,0,15.3-4.3,15.3-20.1c0-15.3-1.2-29.1-1.2-46.4c0-21.6,6.7-29.9,21.2-33.4v-1.2
	c-14.6-3.5-21.2-11.8-21.2-33.4c0-17.3,1.2-31.1,1.2-46.4c0-15.7-3.5-20.1-15.3-20.1h-5.5V76.8h18.1c25.2,0,36.6,9.8,36.6,40.9
	c0,20.1-2.8,30.7-2.8,48.8c0,9.8,5.9,20.5,24.4,20.9v24.8c-18.5,0.4-24.4,11-24.4,21.2c0,18.1,2.8,28.3,2.8,48.8
	c0,31.1-11.4,40.9-36.6,40.9h-18.1V300.3z"/>
</svg>
