<?xml version="1.0" encoding="utf-8"?>
<!-- Generator: Adobe Illustrator 27.4.1, SVG Export Plug-In . SVG Version: 6.00 Build 0)  -->
<svg version="1.1" id="Layer_1" xmlns="http://www.w3.org/2000/svg" xmlns:xlink="http://www.w3.org/1999/xlink" x="0px" y="0px"
	 viewBox="0 0 128 128" style="enable-background:new 0 0 128 128;" xml:space="preserve">
<style type="text/css">
	.st0{fill:#22C55E;}
</style>
<path class="st0" d="M24,65.9v-3.8c0,0,0-0.1,0-0.1h-8v-1.5c0-0.7-0.4-1.4-1-1.7l-6-3.5c-0.6-0.4-1.4-0.4-2,0l-6,3.5
	c-0.6,0.4-1,1-1,1.7v7c0,0.7,0.4,1.4,1,1.7l6,3.5c0.6,0.4,1.4,0.4,2,0l6-3.5c0.6-0.4,1-1,1-1.7V66h8C24,66,24,65.9,24,65.9z
	 M12,66.4l-4,2.3l-4-2.3v-4.7l4-2.3l4,2.3V66.4z"/>
<path class="st0" d="M90.9,34.4l2.7,2.7c0,0,0,0.1,0.1,0.1l4.8-4.8l5.6,1.5c0.7,0.2,1.4,0,1.9-0.5l5-4.9c0.5-0.5,0.7-1.2,0.5-1.9
	l-1.8-6.7c-0.2-0.7-0.7-1.2-1.4-1.4l-6.7-1.8c-0.7-0.2-1.4,0-1.9,0.5l-4.9,4.9c-0.5,0.5-0.7,1.2-0.5,1.9l1.5,5.6L90.9,34.4
	C90.9,34.3,90.9,34.3,90.9,34.4z M101.7,20.6l4.5,1.2l1.2,4.5l-3.3,3.3l-4.5-1.2l-1.2-4.5L101.7,20.6z"/>
<path class="st0" d="M37.1,93.6l-2.7-2.7c0,0,0-0.1-0.1-0.1l-4.8,4.8l-5.6-1.5c-0.7-0.2-1.4,0-1.9,0.5l-5,4.9
	c-0.5,0.5-0.7,1.2-0.5,1.9l1.8,6.7c0.2,0.7,0.7,1.2,1.4,1.4l6.7,1.8c0.7,0.2,1.4,0,1.9-0.5l4.9-5c0.5-0.5,0.7-1.2,0.5-1.9l-1.5-5.6
	L37.1,93.6C37.1,93.7,37.1,93.7,37.1,93.6z M26.3,107.4l-4.5-1.2l-1.2-4.5l3.3-3.3l4.5,1.2l1.2,4.5L26.3,107.4z"/>
<path class="st0" d="M91.1,80.2l-2.3-2.3c1.1-2,2-4.1,2.6-6.3h3.2c3.1-0.1,5.5-2.7,5.4-5.8v-3.8c0.1-3.1-2.3-5.7-5.4-5.8h-3.2
	c-0.6-2.2-1.5-4.3-2.6-6.3l2.3-2.3c2.1-2.3,1.9-5.8-0.3-7.9l-2.7-2.7c-2.1-2.2-5.6-2.4-7.9-0.3l-2.3,2.3c-2-1.1-4.1-2-6.3-2.6v-3.3
	c-0.1-3.1-2.7-5.5-5.8-5.4h-3.8c-3.1-0.1-5.7,2.3-5.8,5.4v3.3c-2.2,0.6-4.3,1.5-6.3,2.6l-2.3-2.3c-2.3-2.1-5.8-1.9-7.9,0.3l-2.7,2.7
	c-2.3,2.1-2.4,5.6-0.3,7.9l2.3,2.3c-1.1,2-2,4.1-2.6,6.3h-3.3c-3.1,0.1-5.5,2.7-5.4,5.8v3.8c-0.1,3.1,2.3,5.7,5.4,5.8h3.3
	c0.6,2.2,1.5,4.3,2.6,6.3l-2.3,2.3c-2.1,2.3-1.9,5.8,0.3,7.9l2.7,2.7c2.1,2.2,5.6,2.4,7.9,0.3l2.3-2.3c2,1.1,4.1,2,6.3,2.6v3.3
	c0.1,3.1,2.7,5.5,5.8,5.4h3.8c3.1,0.1,5.7-2.3,5.8-5.4v-3.3c2.2-0.6,4.3-1.5,6.3-2.6l2.3,2.3c2.3,2.1,5.8,1.9,7.9-0.3l2.7-2.7
	C93,86,93.2,82.5,91.1,80.2z M88,85.3L85.3,88c-0.5,0.7-1.5,0.8-2.2,0.3l-3.4-3.4c-0.7-0.7-1.7-0.8-2.5-0.3
	c-2.4,1.6-5.1,2.7-7.9,3.3c-0.9,0.2-1.6,1-1.6,2v4.8c0,0.7-0.8,1.4-1.8,1.4h-3.8c-1,0-1.8-0.6-1.8-1.4v-4.8c0-0.9-0.7-1.8-1.6-2
	c-2.8-0.6-5.5-1.7-7.9-3.3c-0.8-0.5-1.8-0.4-2.5,0.3l-3.4,3.4c-0.7,0.5-1.7,0.4-2.2-0.3L40,85.3c-0.7-0.5-0.8-1.5-0.3-2.2l3.4-3.4
	c0.7-0.7,0.8-1.7,0.3-2.5c-1.6-2.4-2.7-5.1-3.3-7.9c-0.2-0.9-1-1.6-2-1.6h-4.8c-0.9-0.1-1.4-0.9-1.4-1.8v-3.8
	c-0.1-0.9,0.5-1.6,1.4-1.8h4.8c0.9,0,1.8-0.7,2-1.6c0.6-2.8,1.7-5.5,3.3-7.9c0.5-0.8,0.4-1.8-0.3-2.5l-3.4-3.4
	c-0.5-0.7-0.4-1.7,0.3-2.2l2.7-2.7c0.5-0.7,1.5-0.8,2.2-0.3l3.4,3.4c0.7,0.7,1.7,0.8,2.5,0.3c2.4-1.6,5.1-2.7,7.9-3.3
	c0.9-0.2,1.6-1,1.6-2v-4.8c0-0.7,0.8-1.4,1.8-1.4h3.8c0.9-0.1,1.6,0.5,1.8,1.4v4.8c0,0.9,0.7,1.8,1.6,2c2.8,0.6,5.5,1.7,7.9,3.3
	c0.8,0.5,1.8,0.4,2.5-0.3l3.4-3.4c0.7-0.5,1.7-0.4,2.2,0.3l2.7,2.7c0.7,0.5,0.8,1.5,0.3,2.2l-3.4,3.4c-0.7,0.7-0.8,1.7-0.3,2.5
	c1.6,2.4,2.7,5.1,3.3,7.9c0.2,0.9,1,1.6,2,1.6h4.8c0.9,0.1,1.4,0.9,1.4,1.8v3.8c0.1,0.9-0.5,1.6-1.4,1.8h-4.8c-0.9,0-1.8,0.7-2,1.6
	c-0.6,2.8-1.7,5.5-3.3,7.9c-0.5,0.8-0.4,1.8,0.3,2.5l3.4,3.4C88.8,83.8,88.6,84.7,88,85.3L88,85.3z"/>
<path class="st0" d="M64,49c-8.3,0-15,6.7-15,15s6.7,15,15,15c8.3,0,15-6.7,15-15C79,55.7,72.3,49,64,49C64,49,64,49,64,49z M64,75
	c-6.1,0-11-4.9-11-11s4.9-11,11-11c6.1,0,11,4.9,11,11C75,70.1,70.1,75,64,75z"/>
<path class="st0" d="M57,14.2l5,2.9V24c0,0,0.1,0,0.1,0h3.8c0,0,0.1,0,0.1,0v-6.9l5-2.9c0.6-0.4,1-1,1-1.7v-7c0-0.7-0.4-1.4-1-1.7
	l-6-3.5c-0.6-0.4-1.4-0.4-2,0l-6,3.5c-0.6,0.4-1,1-1,1.7v7C56,13.2,56.4,13.9,57,14.2z M60,6.6l4-2.3l4,2.3v4.7l-4,2.3l-4-2.3V6.6z"
	/>
<path class="st0" d="M71,113.8l-5-2.9V104c0,0-0.1,0-0.1,0h-3.8c0,0-0.1,0-0.1,0v6.9l-5,2.9c-0.6,0.4-1,1-1,1.7v7
	c0,0.7,0.4,1.4,1,1.7l6,3.5c0.6,0.4,1.4,0.4,2,0l6-3.5c0.6-0.4,1-1,1-1.7v-7C72,114.8,71.6,114.1,71,113.8z M68,121.4l-4,2.3l-4-2.3
	v-4.7l4-2.3l4,2.3V121.4z"/>
<path class="st0" d="M127,58.8l-6-3.5c-0.6-0.4-1.4-0.4-2,0l-6,3.5c-0.6,0.4-1,1-1,1.7V62h-8c0,0,0,0.1,0,0.1v3.8c0,0,0,0.1,0,0.1h8
	v1.5c0,0.7,0.4,1.4,1,1.7l6,3.5c0.6,0.4,1.4,0.4,2,0l6-3.5c0.6-0.4,1-1,1-1.7v-7C128,59.8,127.6,59.1,127,58.8z M124,66.4l-4,2.3
	l-4-2.3v-4.7l4-2.3l4,2.3V66.4z"/>
<path class="st0" d="M106.1,94.8c-0.5-0.5-1.2-0.7-1.9-0.5l-5.6,1.5l-4.8-4.8c0,0,0,0.1-0.1,0.1L91,93.6c0,0-0.1,0.1-0.1,0.1
	l4.8,4.8l-1.5,5.6c-0.2,0.7,0,1.4,0.5,1.9l4.9,5c0.5,0.5,1.2,0.7,1.9,0.5l6.7-1.8c0.7-0.2,1.2-0.7,1.4-1.4l1.8-6.7
	c0.2-0.7,0-1.4-0.5-1.9L106.1,94.8z M106.2,106.2l-4.5,1.2l-3.3-3.3l1.2-4.5l4.5-1.2l3.3,3.3L106.2,106.2z"/>
<path class="st0" d="M21.9,33.2c0.5,0.5,1.2,0.7,1.9,0.5l5.6-1.5l4.8,4.8c0,0,0.1-0.1,0.1-0.1l2.7-2.7c0,0,0.1-0.1,0.1-0.1l-4.8-4.8
	l1.5-5.6c0.2-0.7,0-1.4-0.5-1.9L28.3,17c-0.5-0.5-1.2-0.7-1.9-0.5l-6.7,1.8c-0.7,0.2-1.2,0.7-1.4,1.4l-1.8,6.7
	c-0.2,0.7,0,1.4,0.5,1.9L21.9,33.2z M21.8,21.8l4.5-1.2l3.3,3.3l-1.2,4.5l-4.5,1.2l-3.3-3.3L21.8,21.8z"/>
</svg>
