<?xml version="1.0" encoding="utf-8"?>
<!-- Generator: Adobe Illustrator 27.4.1, SVG Export Plug-In . SVG Version: 6.00 Build 0)  -->
<svg version="1.1" xmlns="http://www.w3.org/2000/svg" xmlns:xlink="http://www.w3.org/1999/xlink" x="0px" y="0px"
	 viewBox="0 0 373.2 194.1" style="enable-background:new 0 0 373.2 194.1;" xml:space="preserve">
<style type="text/css">
	.st0{display:none;}
	.st1{display:inline;}
	.st2{fill:#FFFFFF;}
</style>
<g id="Layer_2" class="st0">
	<g class="st1">
		<rect x="-136.2" y="-181.1" width="584.9" height="584.9"/>
	</g>
</g>
<g id="Layer_1">
	<path class="st2" d="M28.1,31.7H6.4v-31h104v138.7h-31v-23.6H38.2l-6.3,23.6H0L28.1,31.7z M79.4,84.8V31.7H60L46.1,84.8H79.4z"/>
	<g>
		<g>
			<path class="st2" d="M117.5,56.1V0.6h43.4V13h-31v30.7h31v12.4H117.5z"/>
		</g>
		<g>
			<path class="st2" d="M211.7,0.6v55.5h-12.4V28.7h-19.4v27.3h-12.4V0.6h12.4v15.7h19.4V0.6H211.7z"/>
		</g>
		<g>
			<path class="st2" d="M264.7,0.5V36h-7.3l5,20h-13l-5-20h-13.7v20h-12.4V0.5H264.7z M252.3,23.7V12.9h-21.6v10.8H252.3z"/>
		</g>
		<g>
			<path class="st2" d="M282.2,13h-8.7V0.6h41.6v55.5h-12.4v-9.4h-16.5l-2.5,9.4H271L282.2,13z M302.7,34.2V13H295l-5.5,21.2H302.7z
				"/>
		</g>
		<g>
			<path class="st2" d="M323.8,56.1V0.6h43.5V13h-31.1v8.5h24.3v12.4h-24.3v22.1H323.8z"/>
		</g>
	</g>
	<g>
		<g>
			<path class="st2" d="M164.2,135.9l-0.3-57.2h-7.7V62.2H206l15,57.2v16.5H164.2z M193.1,78.7h-13.5v40.7h24.2L193.1,78.7z"/>
		</g>
		<g>
			<path class="st2" d="M227.1,135.9V62.2h16.5v73.7H227.1z"/>
		</g>
		<g>
			<path class="st2" d="M307,108.9v27h-53.4V62.2h16.5v57.2h20.5v-10.5H307z"/>
		</g>
		<g>
			<path class="st2" d="M336.2,135.9v-27.3h-21.9V62.2h16.5v30h25.8v-30h16.6v46.5h-20.5v27.3H336.2z"/>
		</g>
	</g>
	<g>
		<polygon class="st2" points="117.6,164.2 76.7,164.2 76.7,193.6 147.2,193.6 147.2,100 117.6,100 		"/>
		<rect x="117.6" y="62.2" class="st2" width="29.6" height="28.6"/>
	</g>
</g>
</svg>
